<svg xmlns="http://www.w3.org/2000/svg" width="23" height="10" fill="none" viewBox="0 0 23 10"><path fill="#000008" d="M4.28 1.239C4.545.905 4.726.457 4.678 0c-.39.02-.866.257-1.142.591-.248.286-.467.752-.41 1.19.438.039.876-.218 1.152-.542m.396.628c-.636-.038-1.177.361-1.48.361-.305 0-.77-.342-1.273-.332-.655.01-1.263.38-1.595.968C-.358 4.043.146 5.79.81 6.75c.323.474.712.997 1.225.978.484-.019.674-.313 1.263-.313s.759.313 1.272.304c.531-.01.864-.475 1.187-.95.37-.541.521-1.064.531-1.093-.01-.01-1.025-.399-1.035-1.567-.01-.978.798-1.444.836-1.473-.456-.674-1.168-.75-1.415-.769M10.213.543c1.383 0 2.346.953 2.346 2.341 0 1.393-.983 2.35-2.38 2.35H8.648V7.67H7.542V.543zM8.648 4.306h1.269c.963 0 1.51-.518 1.51-1.417s-.547-1.412-1.505-1.412H8.648zm4.2 1.887c0-.909.696-1.467 1.93-1.536l1.423-.084v-.4c0-.578-.39-.924-1.042-.924-.618 0-1.003.297-1.097.761h-1.007c.06-.938.86-1.63 2.143-1.63 1.26 0 2.064.667 2.064 1.709v3.58H16.24v-.854h-.024c-.302.578-.958.943-1.64.943-1.017 0-1.728-.632-1.728-1.565m3.353-.47v-.41l-1.28.08c-.636.044-.997.326-.997.77 0 .454.376.75.948.75.746 0 1.329-.513 1.329-1.19m2.027 3.857v-.864c.078.02.256.02.345.02.494 0 .76-.208.924-.74 0-.01.093-.317.093-.322l-1.876-5.2h1.155l1.314 4.227h.02l1.313-4.227h1.126l-1.945 5.467c-.445 1.26-.958 1.664-2.035 1.664-.089 0-.356-.01-.434-.025"/></svg>