<svg xmlns="http://www.w3.org/2000/svg" width="135" height="22" fill="none" viewBox="0 0 135 22"><path fill="#fff" fill-rule="evenodd" d="M10.856 19.858c-4.72 0-8.75-4.282-8.75-8.952 0-4.652 3.945-9.018 8.716-9.018 3.136 0 5.394 1.517 7.232 3.894h2.31c-.692-1.248-1.433-2.394-2.563-3.287C15.863.927 13.351 0 10.856 0 4.872 0 0 4.94 0 10.89c0 5.967 4.94 10.856 10.89 10.856 2.428 0 4.804-.893 6.71-2.394 1.197-.96 2.04-2.208 2.849-3.49h-2.31c-1.821 2.377-4.147 3.996-7.283 3.996M34.794 8.479c-1.45-1.871-3.422-3.051-5.866-3.051-4.383 0-7.99 3.558-7.99 7.94s3.624 7.974 7.99 7.974c2.545 0 4.315-1.063 5.866-3.018v2.663h1.905V5.799h-1.905zm-5.967 11.109c-3.355 0-6.002-2.916-6.002-6.203 0-3.27 2.63-6.203 6.002-6.203 3.354 0 5.967 2.933 5.967 6.203 0 3.287-2.63 6.203-5.967 6.203m10.181 1.399h2.04V.437h-2.04zm9.744-2.41-5.158-12.78H41.57l6.187 15.189h2.056l6.17-15.188h-1.99zm8.075 2.41h2.04V5.799h-2.04zm0-17.144h2.04V.438h-2.04zM67.65 5.427c-1.923 0-3.288 1.012-4.552 2.36V5.799H61.21v15.189h2.006v-9.255c-.017-2.444 2.005-4.551 4.467-4.551 3.084 0 4.635 2.68 4.635 5.445v8.362h1.888v-8.362c0-3.944-2.308-7.199-6.556-7.199M93.138.437l-9.272 11.784V.438H81.86v20.549h2.006V15.34l2.63-3.27 6.692 8.917h2.547l-7.958-10.536L95.735.438zm3.338 20.55h1.99V.437h-1.99zm18.459-11.362c-1.382-2.58-4.147-4.198-7.064-4.198-4.348 0-8.024 3.625-8.024 7.974 0 4.382 3.709 7.94 8.059 7.94a8.2 8.2 0 0 0 5.613-2.259c.911-.86 1.45-1.939 1.938-3.068h-2.14c-1.08 2.107-2.985 3.573-5.447 3.573-1.499 0-2.966-.607-4.078-1.635-1.147-1.045-1.653-2.327-1.872-3.843h14.01c0-1.584-.219-3.102-.995-4.484m-12.947 2.731c.608-2.848 2.849-5.175 5.918-5.175 2.579 0 5.344 1.585 5.951 5.175zm15.426 8.631h2.005V5.799h-2.005zm0-17.076h2.005V.438h-2.005zm10.823 1.516c-1.957 0-3.322 1.012-4.604 2.36V5.799h-1.921v15.189h2.023v-9.255c-.017-2.46 2.057-4.551 4.534-4.551 3.069 0 4.688 2.68 4.688 5.445v8.362h1.888v-8.362c0-3.944-2.344-7.199-6.608-7.199" clip-rule="evenodd"/></svg>