<svg xmlns="http://www.w3.org/2000/svg" width="25" height="10" fill="none" viewBox="0 0 25 10"><path fill="#3c4043" d="M11.426 7.503h-.899V.51h2.383q.906 0 1.54.604.646.604.646 1.474c0 .595-.216 1.086-.646 1.484q-.627.596-1.54.595h-1.484zm0-6.132v2.44h1.502a1.2 1.2 0 0 0 .89-.361c.238-.239.36-.53.36-.857 0-.323-.122-.608-.36-.847a1.17 1.17 0 0 0-.89-.37h-1.502zm6.019 1.189q.998 0 1.573.534.576.534.576 1.46v2.95h-.857v-.665H18.7q-.556.82-1.484.819-.794 0-1.325-.468a1.5 1.5 0 0 1-.533-1.17q0-.745.561-1.18.564-.441 1.498-.44.802 0 1.315.295v-.206a1.02 1.02 0 0 0-.37-.796 1.27 1.27 0 0 0-.87-.328q-.752-.001-1.189.637l-.791-.496q.654-.947 1.933-.946m-1.16 3.474q-.001.352.299.585a1.1 1.1 0 0 0 .697.234q.57 0 1.011-.422.444-.42.445-.987-.42-.332-1.17-.333-.548.002-.913.263-.371.273-.37.66m8.196-3.319-2.995 6.89h-.927l1.114-2.41-1.975-4.48h.978l1.423 3.436h.019l1.385-3.436z"/><path fill="#4285f4" d="M7.851 4.1a4.7 4.7 0 0 0-.075-.843H4.01v1.545h2.17a1.86 1.86 0 0 1-.805 1.245v1.002h1.291c.754-.698 1.186-1.73 1.186-2.949"/><path fill="#34a853" d="M5.374 6.047c-.36.242-.822.384-1.364.384-1.046 0-1.934-.705-2.251-1.655H.426v1.033A4.01 4.01 0 0 0 4.01 8.018c1.083 0 1.993-.356 2.655-.97z"/><path fill="#fabb05" d="M1.633 4.01c0-.268.045-.526.126-.768V2.208H.426A4 4 0 0 0 0 4.01c0 .648.154 1.26.426 1.8L1.76 4.777a2.4 2.4 0 0 1-.126-.767"/><path fill="#e94235" d="M4.01 1.587c.591 0 1.12.203 1.539.601l1.144-1.143A3.85 3.85 0 0 0 4.01 0 4.01 4.01 0 0 0 .426 2.208L1.76 3.242c.317-.95 1.205-1.655 2.251-1.655"/></svg>