<svg xmlns="http://www.w3.org/2000/svg" width="110" height="26" fill="none" viewBox="0 0 110 26"><g clip-path="url(#clip0_1_4402)"><path fill="#fff" d="m99.088 7.919-.205.065q-1.192-2.466-3.407-3.925-2.18-1.46-5.484-1.46a8.5 8.5 0 0 0-3.51.747 8.7 8.7 0 0 0-2.929 2.043q-1.227 1.297-1.976 3.146-.75 1.848-.75 4.086t.75 4.087 1.976 3.178a8.95 8.95 0 0 0 2.93 2.011 8.8 8.8 0 0 0 3.509.713q3.27 0 5.314-.973 2.079-1.005 3.509-3.048l.204.065-.068 2.075a9.5 9.5 0 0 1-1.805 1.395q-1.022.583-2.214 1.005-1.159.39-2.42.584-1.26.227-2.52.227a15.5 15.5 0 0 1-5.008-.81q-2.385-.812-4.19-2.27a11.1 11.1 0 0 1-2.862-3.568q-1.056-2.11-1.056-4.67 0-2.563 1.056-4.638a11 11 0 0 1 2.862-3.6q1.805-1.493 4.19-2.27 2.386-.812 5.008-.812 1.26 0 2.52.195t2.42.616q1.192.39 2.214 1.006a8.6 8.6 0 0 1 1.805 1.362zm-75.07 6.195q-.375.161-.716.421a.85.85 0 0 0-.34.714v3.989q-1.637 2.238-4.191 3.47-2.556 1.233-5.655 1.233-2.623 0-5.008-.811-2.385-.81-4.19-2.27a11.1 11.1 0 0 1-2.862-3.568Q0 15.184 0 12.622t1.056-4.638a11 11 0 0 1 2.862-3.6q1.805-1.492 4.19-2.27 2.385-.81 5.008-.811 1.26 0 2.52.195t2.42.616q1.191.39 2.214 1.005 1.022.584 1.805 1.362l.137 3.438-.204.065Q20.815 5.519 18.6 4.059 16.42 2.6 13.116 2.6a8.5 8.5 0 0 0-3.509.746 8.7 8.7 0 0 0-2.93 2.043Q5.451 6.687 4.702 8.535q-.75 1.85-.75 4.087 0 2.205.715 4.054.75 1.848 1.976 3.178a9.4 9.4 0 0 0 2.93 2.043 8.9 8.9 0 0 0 3.543.714q3.543 0 6.064-1.298V15.25a.82.82 0 0 0-.375-.714 4 4 0 0 0-.681-.422l.031-.162q.17.03.613.065.444.03.92.065h2.93q.41-.03.784-.065.374-.03.579-.065zm24.674-12.13a4 4 0 0 0-.68.422q-.342.258-.375.973-.032.777-.068 1.978 0 1.167-.032 2.66 0 1.491-.03 3.243v3.632q-.032 2.108-.546 3.6-.51 1.492-1.363 2.497a6.6 6.6 0 0 1-1.84 1.59 8.8 8.8 0 0 1-1.975.875 7.4 7.4 0 0 1-1.806.39q-.85.097-1.328.097-1.942 0-3.748-.487-1.805-.453-3.168-1.492-1.362-1.038-2.18-2.692t-.818-4.021V8.21q0-1.557-.03-2.79 0-1.264-.032-2.042-.03-.714-.375-.973a4 4 0 0 0-.68-.422l.03-.162q.171.03.546.064.409.03.817.065.444 0 .852.03h1.226q.41-.03.852-.03.443-.03.817-.065.41-.029.58-.064l.03.162q-.375.161-.715.422-.306.259-.34.973-.032.778-.069 2.043v9.827q0 3.534 1.738 5.221t5.144 1.687q.988 0 2.248-.227a6.1 6.1 0 0 0 2.351-1.038q1.125-.779 1.874-2.206.783-1.426.783-3.794 0-2.562-.031-4.378 0-1.85-.031-3.146 0-1.33-.031-2.27-.032-.941-.068-1.72-.031-.713-.375-.973a4 4 0 0 0-.681-.421l.031-.162q.375.064.852.13.477.03.886.03.374 0 .851-.03.51-.066.886-.13zm24.72 5.935-.204.065q-1.192-2.466-3.407-3.925-2.18-1.46-5.484-1.46a8.5 8.5 0 0 0-3.51.747 8.7 8.7 0 0 0-2.929 2.043q-1.226 1.297-1.976 3.146t-.75 4.086.75 4.087 1.976 3.178a8.95 8.95 0 0 0 2.93 2.011 8.8 8.8 0 0 0 3.509.713q3.27 0 5.314-.973 2.078-1.005 3.509-3.048l.204.065-.067 2.075a9.5 9.5 0 0 1-1.806 1.395q-1.022.584-2.215 1.005a14.6 14.6 0 0 1-2.418.584q-1.26.227-2.521.227-2.623 0-5.008-.81-2.385-.812-4.19-2.27a11.1 11.1 0 0 1-2.862-3.568q-1.056-2.11-1.056-4.67 0-2.563 1.056-4.639a11 11 0 0 1 2.862-3.6q1.805-1.49 4.19-2.27 2.385-.81 5.008-.81 1.26 0 2.52.194 1.261.195 2.42.616 1.191.39 2.214 1.006 1.022.584 1.805 1.362zm35.943 15.47a8 8 0 0 0-.579-.064q-.374 0-.817-.03-.443 0-.852-.03h-2.044q-.409.03-.817.065-.375.03-.579.064l-.031-.13q.34-.161.681-.421.34-.26.374-.973.032-.78.032-1.622.03-.843.031-1.914V6.886a51 51 0 0 0-.031-1.881q0-.843-.032-1.622-.03-.713-.374-.973a3 3 0 0 0-.681-.454l.031-.13q.204.066.579.098.409 0 .817.03.444.03.852.03h1.192q.41-.03.852-.03.443-.03.817-.065a5 5 0 0 0 .579-.065l.032.13q-.375.162-.716.454-.306.26-.341.973-.03.779-.068 1.622v15.243q.032.844.068 1.621.032.714.341.973.34.26.716.422z"/></g><defs><clipPath id="clip0_1_4402"><path fill="#fff" d="M0 0h109.387v25.243H0z"/></clipPath></defs></svg>