<svg xmlns="http://www.w3.org/2000/svg" width="22" height="14" fill="none" viewBox="0 0 22 14"><path fill="#ff5f00" d="M13.82 1.437H7.937V12.01h5.883z"/><path fill="#eb001b" d="M8.31 6.724a6.71 6.71 0 0 1 2.568-5.287 6.723 6.723 0 1 0 0 10.572A6.71 6.71 0 0 1 8.31 6.724"/><path fill="#f79e1b" d="M21.757 6.724a6.723 6.723 0 0 1-10.879 5.285 6.722 6.722 0 0 0 0-10.572 6.723 6.723 0 0 1 10.878 5.286m-.641 4.167v-.217h.087v-.044h-.222v.044h.087v.217zm.432 0v-.261h-.069l-.078.18-.078-.18h-.069v.26h.049v-.196l.073.17h.05l.073-.17v.197z"/></svg>