<svg xmlns="http://www.w3.org/2000/svg" width="117" height="24" fill="none" viewBox="0 0 117 24"><path fill="#fff" fill-rule="evenodd" d="M105.305.46h11.431v1.82a3.3 3.3 0 0 0-1.029-.17h-6.572v8.512h6.392c.46 0 .868-.05 1.209-.137V12.3c-.29-.068-.689-.103-1.183-.103h-6.418v8.801h6.375c.35 0 .767-.05 1.226-.161v1.957h-11.414c.091-.344.137-.699.136-1.055V1.54c0-.442-.051-.808-.153-1.08m-2.646 5.796-3.303-.025c-.162-1.856-1.225-3.652-3.566-3.983-5.014-.451-6.427 5.055-6.3 9.081.129 3.881.75 9.848 5.925 9.848 2.17 0 4.256-2.23 4.188-4.111l3.056-.025c-.222 3.881-4.673 6.128-6.793 6.205-7.243.247-10.274-4.58-10.427-11.466C85.304 5.542 87.857 0 95.015 0c6.128.085 7.312 3.711 7.644 6.256M51.146 20.258l2.188-1.83c1.14 1.881 2.076 2.74 4.34 2.74 2.298 0 4.231-1.396 4.231-3.863 0-1.218-.494-2.214-1.473-2.963-.443-.349-1.566-.953-3.337-1.796-2.647-1.268-5.225-2.92-5.225-6.238 0-4.188 3.557-6.035 7.31-6.172 2.222-.085 4.98 1.141 6.095 2.52l-2.221 1.71a4.64 4.64 0 0 0-4.086-2.45c-2.834 0-5.081 3.285-2.732 5.55.595.578 1.813 1.293 3.669 2.144 2.962 1.387 5.49 3.047 5.49 6.716a6.7 6.7 0 0 1-.988 3.532c-1.319 2.179-3.524 3.268-6.605 3.268-3.54 0-4.238-.808-6.656-2.868M19.976.46h11.422v1.82a3.3 3.3 0 0 0-1.029-.17h-6.57v8.512h6.391c.46 0 .869-.05 1.209-.137V12.3c-.29-.068-.69-.103-1.174-.103h-6.427v8.801h6.375c.35 0 .767-.05 1.226-.161v1.957H19.994c.084-.345.126-.7.127-1.055V1.54c0-.442-.051-.808-.144-1.08M0 .46h4.154v.204c0 .188.06.434.161.75l5.856 17.627 6.01-17.705a3 3 0 0 0 .144-.876h2.017a5.5 5.5 0 0 0-.451.953l-6.86 20.471q-.103.296-.179.911H7.447a6 6 0 0 0-.23-.911L.495 1.574A34 34 0 0 0 .008.46zm44.115 11.644c2.724-.536 4.81-2.622 4.81-5.6 0-3.908-3.27-6.045-6.93-6.045h-6.69c.094.341.146.699.146 1.073v20.19c0 .433-.052.8-.145 1.072h3.983a4 4 0 0 1-.144-1.073v-9.276l1.276.136 6.673 10.213h4.01zm-.689-1.702c-.723.51-1.592.765-2.588.765h-1.702v-9.08h1.524q1.953 0 3.039.969c.987.894 1.49 2.103 1.49 3.618q0 2.451-1.763 3.728m41.35 11.465-7.44-20.666a2.7 2.7 0 0 1-.144-.741h-3.218c0 .264-.043.544-.145.825L66.62 21.867a4 4 0 0 1-.45.927h2.076c-.008-.34.034-.655.128-.927l2.135-6.07h8.214l2.111 6.07c.111.331.162.638.162.927h4.308a4.5 4.5 0 0 1-.529-.927m-13.704-7.712 3.472-10.086 3.567 10.086z" clip-rule="evenodd"/></svg>