<svg xmlns="http://www.w3.org/2000/svg" width="28" height="9" fill="none" viewBox="0 0 28 9"><path fill="#1434cb" d="m13.81.16-1.864 8.71H9.693L11.557.16zm9.482 5.625 1.186-3.272.683 3.272zm2.514 3.086h2.085L26.071.16h-1.923c-.433 0-.797.252-.96.64l-3.38 8.072h2.366l.47-1.3h2.891zm-5.881-2.844c.01-2.3-3.18-2.426-3.158-3.453.006-.313.305-.645.956-.73.323-.043 1.212-.075 2.222.39L20.34.386A6 6 0 0 0 18.232 0c-2.227 0-3.795 1.184-3.808 2.88-.014 1.254 1.119 1.954 1.973 2.37.878.428 1.173.702 1.169 1.083-.006.585-.7.843-1.348.853-1.134.018-1.791-.306-2.315-.55l-.409 1.909c.527.242 1.499.452 2.507.463 2.367 0 3.916-1.17 3.924-2.981M10.59.159 6.938 8.871H4.556L2.759 1.92c-.11-.429-.204-.585-.536-.766C1.682.86.787.583 0 .413L.054.159h3.834c.49 0 .929.326 1.04.889l.949 5.041L8.222.16z"/></svg>