<svg xmlns="http://www.w3.org/2000/svg" width="64" height="27" fill="none" viewBox="0 0 64 27"><g clip-path="url(#clip0_1_4400)"><path fill="#fff" d="M60.536 25.852 51.082.022l-.006-.016h-.187l-1.947 5.307-3.544 9.664-.008-.008c-1.228-1.076-2.961-1.748-5.144-1.998l-.665-.069.66-.084c3.6-.641 6.019-2.897 6.019-5.615 0-3.727-3.533-6.328-8.593-6.328H27.14v.189h3.059V20.32L22.769.023l-.006-.017h-.187L20.63 5.313l-7.51 20.473-.046.005a8 8 0 0 1-.946.06H4.542L18.964 1.065l.107-.187H1.433v7.668h.187c.033-3.735 2.225-7.481 7.068-7.481h5.843L0 26.038h19.576V18.69h-.188c-.025 3.255-1.885 6.348-5.929 7.046l-.128.022 3.08-8.401h8.627l3.109 8.494H25.08v.186h12.037v-.186h-3.08V13.039h3.553c3.617 0 5.691 1.604 5.691 4.398v2.272c0 .25.017.617.036.923v.011l-1.91 5.208h-2.495v.186h5.165v-.186h-2.468l1.739-4.742.005.073.048.428.046.282c.29 1.749.965 3.034 2.003 3.82l.15.108c.788.544 1.768.82 2.914.82 1.518 0 2.53-.375 3.366-1.26l-.11-.102c-.77.706-1.416.991-2.225.991-1.38 0-2.102-1.66-2.102-3.298v-3.184a7.1 7.1 0 0 0-.368-2.326l-.035-.098v-.004h6.31l3.11 8.494h-3.067v.186h10.416v-.186zm-44.057-8.68 4.25-11.587 4.24 11.587zm17.56-4.32V1.065h2.712c3.624 0 5.537 2.137 5.537 6.179 0 4.299-1.098 5.61-4.697 5.61zm12.928 4.32-.019-.046a5.8 5.8 0 0 0-1.203-1.822l-.177-.176-.02-.018 3.491-9.525 4.241 11.587z"/></g><defs><clipPath id="clip0_1_4400"><path fill="#fff" d="M0 0h63.809v26.645H0z"/></clipPath></defs></svg>