<svg xmlns="http://www.w3.org/2000/svg" width="23" height="21" fill="none" viewBox="0 0 23 21"><path fill="#000" d="M9.375 18.375a1.875 1.875 0 1 1-3.75 0 1.875 1.875 0 0 1 3.75 0M17.25 16.5a1.875 1.875 0 1 0 0 3.75 1.875 1.875 0 0 0 0-3.75m4.825-11.294-2.558 8.316a2.61 2.61 0 0 1-2.51 1.853H7.775a2.64 2.64 0 0 1-2.525-1.904L2.045 2.25h-.92a1.125 1.125 0 0 1 0-2.25h1.202A1.88 1.88 0 0 1 4.13 1.36l.683 2.39H21a1.125 1.125 0 0 1 1.075 1.456M19.477 6H5.455l1.959 6.853a.375.375 0 0 0 .36.272h9.233a.375.375 0 0 0 .36-.264z"/></svg>