<svg xmlns="http://www.w3.org/2000/svg" width="125" height="19" fill="none" viewBox="0 0 125 19"><path fill="#000" d="M8.967 18.816C2.877 18.795 0 16.905.147 12.327h5.229c.063 1.197 1.071 1.932 3.591 1.953 2.226.021 3.255-.609 3.255-1.428 0-.567-.315-1.155-2.037-1.407l-2.268-.357c-3.339-.546-7.35-.945-7.35-5.46C.567 2.142 3.402 0 9.009 0c5.061 0 8.589 1.407 8.484 6.447h-5.187c-.21-1.176-1.197-1.911-3.423-1.911-1.932 0-2.73.588-2.73 1.386 0 .504.315 1.113 1.659 1.323l1.869.315c3.507.588 8.316.693 8.316 5.523 0 3.843-2.982 5.754-9.03 5.733M31.761.588h5.817v17.64H31.76v-6.384h-6.846v6.384h-5.817V.588h5.817v6.384h6.846zm16.976 18.228c-6.069 0-9.996-3.759-9.996-9.408S42.668 0 48.737 0s9.996 3.759 9.996 9.408-3.927 9.408-9.996 9.408m0-5.019c2.31 0 4.221-1.596 4.221-4.389s-1.91-4.389-4.22-4.389-4.222 1.596-4.222 4.389 1.911 4.389 4.221 4.389M59.9 18.228V.588h10.017c4.81 0 7.665 2.142 7.665 6.888s-2.856 6.888-7.644 6.888h-4.22v3.864zm5.817-8.694h3.696c1.407 0 2.31-.693 2.31-2.058s-.903-2.058-2.289-2.058h-3.717zm14.775 9.03c-1.575 0-2.898-1.302-2.898-2.856s1.323-2.856 2.898-2.856 2.898 1.302 2.898 2.856-1.323 2.856-2.898 2.856m13.96.252c-5.944 0-9.913-3.759-9.913-9.408S88.51 0 94.451 0c4.305 0 8.715 1.89 9.303 7.854H98.21c-.483-1.932-1.848-2.835-3.759-2.835-2.31 0-4.137 1.722-4.137 4.389s1.827 4.389 4.137 4.389c1.911 0 3.276-.903 3.76-2.877h5.543c-.588 6.006-4.956 7.896-9.303 7.896m20.361 0c-6.069 0-9.996-3.759-9.996-9.408S108.744 0 114.813 0s9.996 3.759 9.996 9.408-3.927 9.408-9.996 9.408m0-5.019c2.31 0 4.221-1.596 4.221-4.389s-1.911-4.389-4.221-4.389-4.221 1.596-4.221 4.389 1.911 4.389 4.221 4.389"/></svg>